HIERARCHY
ROOT root
{
	OFFSET 0.000000 0.000000 0.000000
	CHANNELS 6 Xposition Yposition Zposition Zrotation Yrotation Xrotation
	JOINT lhip
	{
		OFFSET 0.058581 -0.082280 -0.017664
		CHANNELS 3 Zrotation Yrotation Xrotation
		JOINT lknee
		{
			OFFSET 0.043451 -0.386469 0.008037
			CHANNELS 3 Zrotation Yrotation Xrotation
			JOINT lankle
			{
				OFFSET -0.014790 -0.426874 -0.037428
				CHANNELS 3 Zrotation Yrotation Xrotation
				JOINT ltoe
				{
					OFFSET 0.041054 -0.060286 0.122042
					CHANNELS 3 Zrotation Yrotation Xrotation
					End Site
					{
						OFFSET 0.000000 0.000000 0.000000
					}
				}
			}
		}
	}
	JOINT rhip
	{
		OFFSET -0.060310 -0.090513 -0.013543
		CHANNELS 3 Zrotation Yrotation Xrotation
		JOINT rknee
		{
			OFFSET -0.043257 -0.383688 -0.004843
			CHANNELS 3 Zrotation Yrotation Xrotation
			JOINT rankle
			{
				OFFSET 0.019056 -0.420046 -0.034562
				CHANNELS 3 Zrotation Yrotation Xrotation
				JOINT rtoe
				{
					OFFSET -0.034840 -0.062106 0.130323
					CHANNELS 3 Zrotation Yrotation Xrotation
					End Site
					{
						OFFSET 0.000000 0.000000 0.000000
					}
				}
			}
		}
	}
	JOINT lowerback
	{
		OFFSET 0.004439 0.124404 -0.038385
		CHANNELS 3 Zrotation Yrotation Xrotation
		JOINT upperback
		{
			OFFSET 0.004488 0.137956 0.026820
			CHANNELS 3 Zrotation Yrotation Xrotation
			JOINT chest
			{
				OFFSET -0.002265 0.056032 0.002855
				CHANNELS 3 Zrotation Yrotation Xrotation
				JOINT lowerneck
				{
					OFFSET -0.013390 0.211636 -0.033468
					CHANNELS 3 Zrotation Yrotation Xrotation
					JOINT upperneck
					{
						OFFSET 0.010113 0.088937 0.050410
						CHANNELS 3 Zrotation Yrotation Xrotation
						End Site
						{
							OFFSET 0.000000 0.000000 0.000000
						}
					}
				}
				JOINT lclavicle
				{
					OFFSET 0.071702 0.114000 -0.018898
					CHANNELS 3 Zrotation Yrotation Xrotation
					JOINT lshoulder
					{
						OFFSET 0.122921 0.045205 -0.019046
						CHANNELS 3 Zrotation Yrotation Xrotation
						JOINT lelbow
						{
							OFFSET 0.255332 -0.015649 -0.022946
							CHANNELS 3 Zrotation Yrotation Xrotation
							JOINT lwrist
							{
								OFFSET 0.265709 0.012698 -0.007375
								CHANNELS 3 Zrotation Yrotation Xrotation
								End Site
								{
									OFFSET 0.000000 0.000000 0.000000
								}
							}
						}
					}
				}
				JOINT rclavicle
				{
					OFFSET -0.082954 0.112472 -0.023707
					CHANNELS 3 Zrotation Yrotation Xrotation
					JOINT rshoulder
					{
						OFFSET -0.113228 0.046853 -0.008472
						CHANNELS 3 Zrotation Yrotation Xrotation
						JOINT relbow
						{
							OFFSET -0.260127 -0.014369 -0.031269
							CHANNELS 3 Zrotation Yrotation Xrotation
							JOINT rwrist
							{
								OFFSET -0.269108 0.006794 -0.006027
								CHANNELS 3 Zrotation Yrotation Xrotation
								End Site
								{
									OFFSET 0.000000 0.000000 0.000000
								}
							}
						}
					}
				}
			}
		}
	}
}
MOTION
Frames: 17
Frame Time: 0.033333
-0.159796 0.313812 0.860243 91.866643 1.534355 75.330026 13.555295 3.928884 -8.176413 -11.451221 -3.312654 55.330780 -0.629899 4.643434 -37.703681 0.000000 -0.000000 0.000000 -10.783298 -5.657107 -9.512779 4.312769 -4.103154 60.050098 -2.167203 -3.958040 -39.262225 0.000000 -0.000000 0.000000 -0.128213 1.305620 12.870665 2.238849 -4.115433 6.642582 1.166602 -1.170110 -7.657215 -0.373804 4.382405 -3.947217 -2.438877 -2.632238 7.077820 -3.061064 -25.210861 -8.068578 -22.209787 -22.282222 -8.477062 59.844886 -56.159425 -30.380096 -26.780369 -5.412698 1.368720 0.422884 27.973226 -5.700105 12.541221 26.674339 -11.991174 -34.832681 51.670749 -13.996417 18.009368 5.808405 -8.490566 
-0.159553 0.313706 0.860147 91.857774 1.522695 75.318064 13.546695 3.946334 -8.146126 -11.450295 -3.334728 55.341634 -0.630582 4.647862 -37.732259 0.000000 -0.000000 0.000000 -10.805053 -5.656838 -9.487462 4.324388 -4.109810 60.061804 -2.172168 -3.935493 -39.285325 0.000000 -0.000000 0.000000 -0.109895 1.293166 12.884645 2.221607 -4.120400 6.620185 1.156762 -1.171575 -7.666184 -0.380514 4.376219 -3.906309 -2.456415 -2.622479 7.090725 -3.056907 -25.232149 -8.044722 -22.211397 -22.233795 -8.485299 59.817877 -56.143926 -30.354273 -26.791042 -5.428859 1.363024 0.408687 27.989195 -5.705436 12.590358 26.660177 -11.982946 -34.804691 51.689905 -13.961758 18.049010 5.823383 -8.499382 
-0.159300 0.313665 0.860023 91.836780 1.509988 75.308146 13.531675 3.950903 -8.115333 -11.430729 -3.339134 55.353930 -0.626335 4.660147 -37.761440 0.000000 -0.000000 0.000000 -10.818178 -5.655671 -9.491858 4.327700 -4.106720 60.115888 -2.165677 -3.932602 -39.300247 0.000000 -0.000000 0.000000 -0.084948 1.287820 12.894820 2.209036 -4.114113 6.588158 1.147556 -1.175872 -7.676011 -0.398476 4.374446 -3.841233 -2.474076 -2.598541 7.089350 -3.075381 -25.266262 -8.001275 -22.197502 -22.176450 -8.488431 59.831588 -56.141603 -30.364024 -26.809831 -5.408374 1.381553 0.415352 28.011550 -5.692925 12.620441 26.638501 -11.970621 -34.823140 51.713595 -13.989411 18.081483 5.808768 -8.470121 
-0.159061 0.313642 0.859828 91.823603 1.491114 75.286625 13.497847 3.938219 -8.076165 -11.398995 -3.349170 55.363920 -0.619648 4.673417 -37.817977 0.000000 -0.000000 0.000000 -10.830956 -5.646666 -9.481397 4.309260 -4.100067 60.163190 -2.173050 -3.931213 -39.357587 0.000000 -0.000000 0.000000 -0.075352 1.282927 12.902930 2.201454 -4.119106 6.604869 1.140333 -1.168127 -7.701264 -0.410371 4.380020 -3.785150 -2.469933 -2.582945 7.060867 -3.093310 -25.295848 -7.985486 -22.169760 -22.146532 -8.497420 59.834619 -56.158857 -30.401070 -26.819407 -5.421959 1.358948 0.433824 28.031382 -5.687599 12.630766 26.615621 -11.981135 -34.852444 51.722124 -14.053679 18.039256 5.815047 -8.492022 
-0.158816 0.313639 0.859628 91.843252 1.483980 75.284614 13.472171 3.919194 -8.073592 -11.379172 -3.357725 55.388754 -0.616485 4.699198 -37.847173 0.000000 -0.000000 0.000000 -10.852028 -5.657808 -9.477199 4.301610 -4.114313 60.207696 -2.176294 -3.914614 -39.387995 0.000000 -0.000000 0.000000 -0.070391 1.280472 12.893765 2.214507 -4.128946 6.596406 1.140847 -1.168564 -7.704921 -0.411750 4.380431 -3.736160 -2.483071 -2.589225 7.023701 -3.095881 -25.318579 -7.978963 -22.182274 -22.170885 -8.483920 59.810325 -56.148068 -30.363283 -26.866510 -5.422230 1.356172 0.438572 28.031169 -5.687429 12.628616 26.594087 -11.976733 -34.855762 51.703467 -14.049026 18.040259 5.823025 -8.529821 
-0.158559 0.313699 0.859405 91.861517 1.483168 75.277127 13.462257 3.919647 -8.069697 -11.376572 -3.371160 55.426473 -0.602314 4.703535 -37.894052 0.000000 -0.000000 0.000000 -10.864924 -5.661968 -9.475307 4.295691 -4.117972 60.268591 -2.161250 -3.905778 -39.420016 0.000000 -0.000000 0.000000 -0.038142 1.261746 12.917029 2.220892 -4.119179 6.542576 1.127571 -1.178089 -7.694079 -0.423847 4.367259 -3.743711 -2.484263 -2.567966 7.043834 -3.085566 -25.326725 -7.973095 -22.210007 -22.187808 -8.458110 59.842596 -56.150734 -30.378645 -26.789077 -5.424989 1.347249 0.414835 28.021306 -5.721390 12.654572 26.583119 -11.944876 -34.818394 51.665885 -14.028512 18.014484 5.819830 -8.497528 
-0.158326 0.313768 0.859158 91.848501 1.473703 75.263910 13.463050 3.933024 -8.053872 -11.380895 -3.360409 55.467368 -0.605377 4.699080 -37.932380 0.000000 -0.000000 0.000000 -10.861799 -5.656718 -9.472375 4.277515 -4.087930 60.322178 -2.162879 -3.913001 -39.464453 0.000000 -0.000000 0.000000 -0.019637 1.262136 12.929446 2.227105 -4.095768 6.538018 1.126590 -1.163969 -7.718392 -0.437976 4.362603 -3.756212 -2.471817 -2.562831 7.074249 -3.098331 -25.357066 -7.965923 -22.221675 -22.198864 -8.432256 59.880666 -56.155386 -30.433732 -26.725237 -5.435207 1.345542 0.421746 28.025162 -5.734053 12.630293 26.538309 -11.939948 -34.759413 51.659781 -14.038803 17.979261 5.815147 -8.491142 
-0.158080 0.313861 0.858950 91.847719 1.464591 75.257424 13.451513 3.928541 -8.047370 -11.386297 -3.352960 55.503946 -0.603769 4.707194 -37.968701 0.000000 -0.000000 0.000000 -10.882260 -5.660298 -9.465228 4.273608 -4.086227 60.353934 -2.161633 -3.910798 -39.497694 0.000000 -0.000000 0.000000 -0.005215 1.260556 12.923953 2.236759 -4.092530 6.529372 1.129341 -1.159084 -7.718774 -0.438874 4.370869 -3.761045 -2.484964 -2.551578 7.074580 -3.113367 -25.382140 -7.960798 -22.222651 -22.190559 -8.426017 59.892197 -56.153664 -30.456679 -26.722845 -5.438802 1.360284 0.449036 28.050479 -5.693862 12.574066 26.490176 -11.954710 -34.790476 51.674895 -14.054225 17.974508 5.805542 -8.472305 
-0.157776 0.314049 0.858770 91.852191 1.460496 75.228897 13.436254 3.936432 -8.015872 -11.379062 -3.358487 55.552423 -0.587593 4.707013 -38.005827 0.000000 -0.000000 0.000000 -10.909540 -5.672491 -9.434795 4.282149 -4.064289 60.403658 -2.152264 -3.903036 -39.514880 0.000000 -0.000000 0.000000 0.026512 1.261254 12.956156 2.240433 -4.091460 6.494876 1.133425 -1.153197 -7.722130 -0.457371 4.370010 -3.757245 -2.467539 -2.540350 7.072790 -3.116906 -25.423794 -7.947459 -22.232876 -22.167600 -8.427880 59.845399 -56.152863 -30.415808 -26.735892 -5.446858 1.377976 0.432745 28.064125 -5.687521 12.583625 26.427360 -11.951675 -34.817838 51.704965 -14.051935 17.978044 5.780802 -8.462881 
-0.157555 0.314243 0.858569 91.849825 1.458283 75.226889 13.418102 3.957389 -8.017518 -11.363735 -3.364273 55.601297 -0.566998 4.711543 -38.052081 0.000000 -0.000000 0.000000 -10.921145 -5.686206 -9.434298 4.273872 -4.037174 60.437884 -2.157601 -3.899495 -39.542831 0.000000 -0.000000 0.000000 0.059524 1.250622 12.971564 2.244029 -4.089294 6.442647 1.136178 -1.159397 -7.702530 -0.474169 4.367710 -3.780291 -2.482665 -2.512414 7.095311 -3.116990 -25.421221 -7.941283 -22.239229 -22.159359 -8.433358 59.787739 -56.147196 -30.354226 -26.723631 -5.458515 1.352982 0.436303 28.070708 -5.685799 12.553701 26.435621 -11.968513 -34.771358 51.704923 -14.023834 17.974166 5.806725 -8.493708 
-0.157342 0.314465 0.858395 91.826211 1.449368 75.225886 13.398182 3.961007 -8.010972 -11.364693 -3.349983 55.646046 -0.562123 4.718462 -38.092037 0.000000 -0.000000 0.000000 -10.921505 -5.654361 -9.448208 4.274439 -4.004184 60.481008 -2.147059 -3.931549 -39.557666 0.000000 -0.000000 0.000000 0.084330 1.242534 12.977777 2.247224 -4.075554 6.425480 1.142579 -1.157694 -7.709710 -0.486457 4.338637 -3.803242 -2.493498 -2.495221 7.090612 -3.146241 -25.434439 -7.913187 -22.238687 -22.127594 -8.456321 59.811540 -56.144706 -30.362819 -26.709859 -5.455541 1.371981 0.429434 28.090273 -5.680634 12.533020 26.424591 -11.985083 -34.757211 51.716804 -13.986328 17.967084 5.805094 -8.478504 
-0.157098 0.314716 0.858251 91.791211 1.431501 75.211563 13.361937 3.967213 -7.980483 -11.348860 -3.334690 55.678226 -0.546841 4.736089 -38.137905 0.000000 -0.000000 0.000000 -10.928224 -5.635285 -9.441968 4.263304 -3.953931 60.508483 -2.141761 -3.963631 -39.583052 0.000000 -0.000000 0.000000 0.101982 1.247277 12.994167 2.234604 -4.062101 6.396499 1.149973 -1.151800 -7.697010 -0.483005 4.326742 -3.795664 -2.474688 -2.456199 7.084862 -3.150500 -25.426316 -7.917506 -22.275431 -22.122667 -8.458812 59.785264 -56.155644 -30.371681 -26.693002 -5.467098 1.327006 0.418233 28.100812 -5.681829 12.557551 26.413801 -11.980534 -34.778057 51.719540 -14.027142 17.950747 5.792643 -8.433878 
-0.156919 0.314996 0.858121 91.791251 1.429063 75.219235 13.330040 3.972815 -7.990024 -11.323956 -3.327652 55.713466 -0.527884 4.737901 -38.166055 0.000000 -0.000000 0.000000 -10.957911 -5.655871 -9.447601 4.253736 -3.956168 60.528944 -2.142718 -3.946742 -39.588328 0.000000 -0.000000 0.000000 0.131025 1.232027 12.998356 2.227157 -4.070830 6.362170 1.149899 -1.147229 -7.703278 -0.487557 4.292979 -3.764218 -2.486243 -2.425082 7.089486 -3.189391 -25.426108 -7.906452 -22.301217 -22.115833 -8.440514 59.755461 -56.163131 -30.360759 -26.715346 -5.450883 1.384975 0.442014 28.109072 -5.665539 12.557492 26.421427 -11.986334 -34.746263 51.717946 -14.073896 17.983713 5.792670 -8.403429 
-0.156673 0.315281 0.858033 91.813194 1.443388 75.212458 13.329074 3.980745 -7.978076 -11.340217 -3.343342 55.739480 -0.513531 4.732533 -38.204461 0.000000 -0.000000 0.000000 -11.003380 -5.704324 -9.412495 4.270429 -3.973857 60.528181 -2.143384 -3.902420 -39.588896 0.000000 -0.000000 0.000000 0.166168 1.221023 13.010127 2.236784 -4.077185 6.334781 1.154621 -1.160692 -7.711656 -0.517892 4.253871 -3.726957 -2.518616 -2.386996 7.104366 -3.251582 -25.464578 -7.864094 -22.325724 -22.084641 -8.429976 59.735232 -56.161698 -30.351930 -26.707766 -5.442657 1.406792 0.465114 28.138034 -5.642494 12.551653 26.392381 -11.986496 -34.761577 51.719695 -14.094345 18.016048 5.775359 -8.348903 
-0.156498 0.315563 0.857970 91.830509 1.460214 75.222961 13.352173 3.997462 -7.995667 -11.354225 -3.318830 55.766001 -0.509551 4.703540 -38.203441 0.000000 -0.000000 0.000000 -11.041278 -5.730982 -9.394669 4.295343 -4.000085 60.514847 -2.142413 -3.870447 -39.583262 0.000000 -0.000000 0.000000 0.192835 1.216456 12.981820 2.259428 -4.078276 6.353978 1.151336 -1.167589 -7.710771 -0.534879 4.258361 -3.712337 -2.547942 -2.376771 7.109827 -3.297130 -25.484036 -7.835414 -22.367095 -22.099623 -8.408793 59.696705 -56.156390 -30.302382 -26.688121 -5.447534 1.405254 0.498147 28.130658 -5.625811 12.528787 26.398296 -11.993690 -34.766226 51.715803 -14.081232 17.985405 5.762242 -8.324521 
-0.156300 0.315770 0.857941 91.824396 1.466822 75.223109 13.368724 4.024775 -7.979467 -11.376664 -3.317780 55.769918 -0.495795 4.677087 -38.216757 0.000000 -0.000000 0.000000 -11.052182 -5.750101 -9.390693 4.313526 -3.977857 60.527619 -2.135836 -3.863727 -39.568915 0.000000 -0.000000 0.000000 0.206802 1.213437 12.976699 2.262476 -4.074669 6.367656 1.149665 -1.160985 -7.729082 -0.546671 4.252552 -3.673072 -2.538607 -2.344557 7.106488 -3.330260 -25.504154 -7.815971 -22.374738 -22.085123 -8.390867 59.603520 -56.190649 -30.207038 -26.669033 -5.440984 1.412100 0.530168 28.150533 -5.586845 12.513791 26.380876 -12.005211 -34.734041 51.702326 -14.097124 17.987066 5.767139 -8.348115 
-0.156110 0.316001 0.857875 91.820284 1.472748 75.221013 13.374728 4.052285 -7.969237 -11.374853 -3.313939 55.781362 -0.493505 4.660463 -38.221826 0.000000 -0.000000 0.000000 -11.051809 -5.757396 -9.379144 4.295135 -3.962103 60.527489 -2.137370 -3.867901 -39.577929 0.000000 -0.000000 0.000000 0.204485 1.209918 13.004235 2.265383 -4.071416 6.343722 1.157468 -1.146194 -7.744615 -0.547367 4.239429 -3.653142 -2.523760 -2.332688 7.115545 -3.362482 -25.544204 -7.777384 -22.368260 -22.054319 -8.370149 59.571839 -56.210548 -30.191272 -26.709404 -5.433732 1.400972 0.555465 28.184506 -5.544853 12.497669 26.332760 -12.008146 -34.697844 51.702902 -14.086999 18.027608 5.757106 -8.300076 
